<?xml version="1.0" encoding="UTF-8" standalone="no"?>
<svg
   xmlns:dc="http://purl.org/dc/elements/1.1/"
   xmlns:cc="http://creativecommons.org/ns#"
   xmlns:rdf="http://www.w3.org/1999/02/22-rdf-syntax-ns#"
   xmlns:svg="http://www.w3.org/2000/svg"
   xmlns="http://www.w3.org/2000/svg"
   xmlns:sodipodi="http://sodipodi.sourceforge.net/DTD/sodipodi-0.dtd"
   xmlns:inkscape="http://www.inkscape.org/namespaces/inkscape"
   version="1.1"
   id="magnifier"
   x="0px"
   y="0px"
   viewBox="0 0 1009.9912 1010"
   enable-background="new 0 0 1009.9912 1010"
   xml:space="preserve"
   sodipodi:docname="magnifier_icon-icons.com_56375.svg"
   inkscape:version="1.0.2 (e86c8708, 2021-01-15)"><metadata
   id="metadata857"><rdf:RDF><cc:Work
       rdf:about=""><dc:format>image/svg+xml</dc:format><dc:type
         rdf:resource="http://purl.org/dc/dcmitype/StillImage" /></cc:Work></rdf:RDF></metadata><defs
   id="defs855" /><sodipodi:namedview
   pagecolor="#ffffff"
   bordercolor="#666666"
   borderopacity="1"
   objecttolerance="10"
   gridtolerance="10"
   guidetolerance="10"
   inkscape:pageopacity="0"
   inkscape:pageshadow="2"
   inkscape:window-width="1266"
   inkscape:window-height="806"
   id="namedview853"
   showgrid="false"
   inkscape:zoom="0.10486677"
   inkscape:cx="-1386.1588"
   inkscape:cy="702.49964"
   inkscape:window-x="0"
   inkscape:window-y="23"
   inkscape:window-maximized="0"
   inkscape:current-layer="magnifier" />
<g
   id="g850"
   transform="matrix(-1,0,0,1,1009.9912,0)">
	<g
   id="magnifier-magnifier">
		<g
   id="g835">
			<path
   fill="#5c524c"
   d="M 90.5801,1010 C 66.3892,1010 43.6494,1000.6035 26.541,983.4951 9.4155,966.3516 0,943.6123 0,919.4023 0,895.2285 9.4155,872.4541 26.541,855.3447 L 209.6743,672.2129 c 17.1079,-17.1084 39.8472,-26.541 64.0391,-26.541 24.1919,0 46.9482,9.4326 64.0747,26.5049 35.3105,35.3642 35.292,92.8574 0,128.1494 L 154.6553,983.4951 C 137.5293,1000.6035 114.7725,1010 90.5801,1010 Z M 273.7134,682.3984 c -14.3828,0 -27.9043,5.5957 -38.0723,15.7813 L 52.5088,881.3125 c -10.1865,10.1865 -15.7813,23.708 -15.7813,38.0898 0,14.3829 5.5948,27.9405 15.7813,38.125 20.3364,20.337 55.8076,20.337 76.1797,-0.0341 L 311.8213,774.3593 c 20.9814,-20.9814 20.9814,-55.162 -0.0186,-76.1797 -10.1674,-10.1855 -23.6889,-15.7812 -38.0893,-15.7812 z"
   id="path833" />
		</g>
		<g
   id="g839">
			<path
   fill="#5c524c"
   d="m 343.2393,736.1973 c -1.5957,0 -3.2095,-0.2149 -4.8057,-0.6447 -6.3486,-1.7226 -11.2979,-6.707 -12.9658,-13.0556 -2.4922,-9.5752 -7.1016,-17.7538 -13.6651,-24.3526 -6.5273,-6.4922 -14.7226,-11.0829 -24.3349,-13.6299 -6.3482,-1.6855 -11.3154,-6.6357 -13.0371,-12.9843 -1.7036,-6.3477 0.1074,-13.126 4.7524,-17.752 l 58.7485,-58.75 c 3.6587,-3.6943 8.6973,-5.667 13.898,-5.3789 5.1831,0.2861 10.0244,2.7256 13.3066,6.7422 14.4717,17.6816 30.7735,34.001 48.4727,48.4551 4.0176,3.2998 6.456,8.1416 6.7251,13.3066 0.2515,5.2002 -1.6856,10.2217 -5.3623,13.916 l -58.7485,58.7491 c -3.4791,3.4786 -8.1773,5.379 -12.9839,5.379 z m -19.3311,-75.211 c 5.021,3.2646 9.6655,6.9942 13.8618,11.1905 4.2144,4.2324 7.98,8.8945 11.2442,13.8808 l 26.021,-26.0029 c -8.7515,-7.9629 -17.126,-16.3555 -25.1065,-25.1065 l -26.0205,26.0381 z"
   id="path837" />
		</g>
		<g
   id="g843">
			<path
   fill="#5c524c"
   d="M 630.4912,759.0088 C 421.2305,759.0088 250.9917,588.752 250.9917,379.5 250.9917,170.2388 421.2305,0 630.4912,0 c 209.2607,0 379.5,170.2388 379.5,379.5 0,209.252 -170.2392,379.5088 -379.5,379.5088 z m 0,-722.2817 c -188.9956,0 -342.7724,153.7758 -342.7724,342.7729 0,188.9873 153.7768,342.7812 342.7724,342.7812 188.9971,0 342.7744,-153.7939 342.7744,-342.7812 0,-188.9971 -153.7773,-342.7729 -342.7744,-342.7729 z"
   id="path841" />
		</g>
		<g
   id="g847">
			<path
   fill="#5c524c"
   d="m 431.8652,379.8228 c -10.1499,0 -18.3637,-8.2134 -18.3637,-18.3638 0,-129.6196 105.4292,-235.0664 235.0307,-235.0664 10.1494,0 18.3643,8.2129 18.3643,18.3633 0,10.1499 -8.2149,18.3637 -18.3643,18.3637 -109.3379,0 -198.3037,88.9663 -198.3037,198.3394 0,10.1504 -8.2138,18.3638 -18.3633,18.3638 z"
   id="path845" />
		</g>
	</g>
</g>
</svg>
